<?xml version="1.0" encoding="utf-8"?>
<svg xmlns="http://www.w3.org/2000/svg" viewBox="271.7488 102.346 75.1016 91.036" width="75.1016px" height="91.036px"><g id="object-0" transform="matrix(1, 0, 0, 1, 0, 1.4210854715202004e-14)"><path d="M 314.21 139.978 L 314.21 102.346 L 279.019 102.346 C 277.571 102.346 276.383 103.525 276.383 104.966 L 276.383 140.107 L 314.21 140.107 L 314.21 139.978 Z" fill="#5E98AF" style="stroke-width: 1;"/><path d="M 319.351 139.978 L 338.33 139.978 L 338.33 123.719 C 338.33 122.274 337.145 121.096 335.694 121.096 L 319.351 121.096 L 319.351 139.978 Z" fill="#5E98AF" style="stroke-width: 1;"/><path d="M 314.21 145.09 L 295.363 145.09 L 295.363 161.349 C 295.363 162.791 296.55 163.972 297.998 163.972 L 314.341 163.972 L 314.341 145.09 L 314.21 145.09 Z" fill="#5E98AF" style="stroke-width: 1;"/><path d="M 319.351 145.09 L 319.351 163.972 L 335.694 163.972 C 337.145 163.972 338.33 162.791 338.33 161.349 L 338.33 145.09 L 319.351 145.09 Z" fill="#5E98AF" style="stroke-width: 1;"/><path d="M 271.752 177.009 C 271.723 178.566 271.899 189.941 271.869 190.77 C 271.869 191.548 271.869 192.327 271.899 193.105 C 271.899 193.231 271.986 193.356 272.132 193.356 C 274.178 193.432 276.195 193.281 278.241 193.306 C 278.913 193.331 279.585 193.306 280.228 193.306 C 280.871 193.281 280.93 193.055 280.901 192.603 C 280.871 191.9 280.871 191.272 280.871 190.594 C 280.842 190.243 280.608 190.117 280.258 190.117 C 279.059 190.142 277.861 190.092 276.663 190.142 C 276.458 190.167 276.253 190.167 276.049 190.167 C 275.698 190.142 275.61 190.067 275.581 189.74 L 275.581 189.364 C 275.494 187.28 275.669 185.12 275.669 183.036 C 275.64 181.278 275.669 179.696 275.64 178.139 C 275.64 177.461 275.64 176.783 275.61 176.13 C 275.581 175.728 275.61 175.301 275.494 174.9 C 275.435 174.749 275.347 174.548 275.143 174.548 L 272.395 174.548 C 271.928 174.548 271.782 174.824 271.752 175.226 L 271.752 177.009 Z M 287.857 186.903 C 287.769 184.04 287.798 181.002 287.827 178.164 C 287.827 177.285 287.769 176.331 287.769 175.452 C 287.769 174.498 287.331 174.548 286.746 174.523 C 285.898 174.498 285.519 174.498 284.671 174.498 C 284.116 174.473 283.882 174.598 283.882 175.075 C 283.882 177.536 283.794 184.492 283.823 185.497 C 283.853 186.501 283.969 191.071 283.911 192.076 C 283.882 192.427 283.911 192.779 283.94 193.13 C 283.969 193.256 284.057 193.382 284.291 193.382 C 285.255 193.331 286.162 193.331 287.126 193.306 C 287.477 193.281 287.769 193.206 287.915 192.879 C 287.944 192.704 287.857 188.108 287.857 186.903 Z M 294.813 188.836 C 294.813 187.958 294.667 185.572 294.696 185.07 C 294.696 184.994 294.754 184.894 294.784 184.894 C 294.842 184.894 294.959 184.944 294.988 184.969 C 295.923 186.024 300.308 193.331 300.834 193.356 C 300.98 193.382 301.126 193.382 301.272 193.382 C 302.266 193.331 303.143 193.382 304.136 193.382 C 305.159 193.382 304.487 192.528 304.312 192.302 C 304.049 191.975 300.571 186.627 300.366 186.3 C 299.782 185.446 299.285 184.517 298.7 183.689 C 298.642 183.588 298.583 183.437 298.612 183.337 C 298.671 183.036 298.759 182.759 298.905 182.483 C 299.606 181.303 300.337 180.098 301.184 178.968 C 302.12 177.687 302.646 176.883 303.406 175.728 C 303.581 175.452 303.698 175.151 303.815 174.824 C 303.844 174.699 303.727 174.573 303.552 174.573 C 302.997 174.548 300.98 174.573 300.337 174.573 C 300.045 174.573 299.752 174.623 299.606 174.849 C 299.226 175.477 295.31 181.629 294.93 182.182 C 294.901 182.232 294.813 182.257 294.725 182.257 C 294.725 182.257 294.667 182.182 294.667 182.132 C 294.637 180.725 294.93 176.13 294.871 175.201 C 294.842 174.649 294.725 174.598 294.082 174.573 C 293.381 174.548 292.416 174.548 291.715 174.548 C 291.072 174.548 291.013 174.849 290.926 175.251 C 290.896 175.327 290.896 177.687 290.896 178.742 C 290.896 180.273 290.75 189.866 290.955 192.904 C 290.955 193.206 291.043 193.382 291.335 193.382 C 292.124 193.331 293.293 193.382 294.082 193.382 C 294.637 193.382 294.725 193.331 294.725 192.528 C 294.725 191.448 294.842 190.469 294.842 189.138 C 294.842 189.037 294.813 188.937 294.813 188.836 Z M 307.644 188.234 L 307.614 188.234 C 307.614 188.862 307.585 189.514 307.614 190.167 C 307.644 190.971 307.702 191.774 307.761 192.578 C 307.761 192.854 307.848 192.93 308.141 192.98 C 308.754 193.105 309.339 193.13 309.953 193.13 C 311.531 193.08 313.109 193.181 314.688 193.13 C 315.331 193.105 315.623 193.156 316.266 193.055 C 316.85 192.955 317.055 192.678 317.055 191.925 C 316.996 191.448 317.026 191.247 317.026 190.67 C 317.026 189.841 316.353 189.565 315.769 189.59 C 315.36 189.615 313.402 189.565 312.612 189.565 C 311.297 189.59 311.502 189.74 311.502 188.56 C 311.502 187.606 311.531 186.375 311.531 185.396 C 311.531 184.869 311.589 184.693 312.174 184.693 L 315.827 184.693 C 316.412 184.768 316.821 184.417 316.821 183.889 C 316.821 183.362 316.88 183.337 316.88 182.81 L 316.792 182.056 C 316.733 181.629 316.558 181.479 316.061 181.479 C 315.74 181.479 315.418 181.504 315.097 181.529 C 313.84 181.604 313.255 181.454 312.028 181.529 C 311.619 181.529 311.56 181.479 311.531 181.152 C 311.414 180.173 311.531 179.093 311.648 178.114 C 311.677 177.712 311.794 177.637 312.232 177.612 L 316.353 177.587 C 316.909 177.536 317.084 177.561 317.055 177.084 C 316.996 176.356 317.084 175.603 316.996 174.875 C 316.938 174.473 316.792 174.397 316.266 174.397 C 315.389 174.423 315.184 174.423 314.308 174.473 C 313.431 174.498 309.923 174.498 309.076 174.498 C 307.848 174.498 307.761 174.423 307.731 175.703 C 307.673 176.708 307.702 177.737 307.702 178.767 C 307.702 180.525 307.585 186.827 307.644 188.234 Z M 331.523 177.511 C 331.552 176.683 331.523 176.005 331.523 175.201 C 331.523 174.272 329.564 174.372 328.863 174.397 C 325.735 174.573 322.754 176.281 321.322 178.616 C 320.913 179.294 320.621 179.997 320.416 180.725 C 319.919 182.433 319.89 184.241 320.124 185.974 C 320.328 187.606 320.825 189.238 321.994 190.544 C 324.011 192.829 327.723 193.633 330.909 193.206 C 331.055 193.181 331.201 193.156 331.318 193.08 C 331.406 193.03 331.493 192.93 331.493 192.829 L 331.581 191.398 C 331.61 190.946 331.581 190.971 331.581 190.519 C 331.581 189.916 330.12 190.368 329.214 190.368 C 328.337 190.368 327.401 190.343 326.612 189.992 C 325.209 189.314 324.42 187.958 323.982 186.677 C 323.485 185.296 323.368 183.814 323.66 182.408 C 324.011 180.575 325.034 178.465 327.285 177.838 C 328.571 177.461 329.944 177.587 331.23 177.712 C 331.406 177.737 331.523 177.637 331.523 177.511 Z M 344.908 184.115 C 344.938 183.036 344.908 177.712 344.908 176.18 C 344.938 175.829 344.908 175.477 344.85 175.126 C 344.821 174.699 344.733 174.573 344.207 174.548 L 341.986 174.548 C 341.576 174.548 341.313 174.724 341.08 175.101 C 340.407 176.482 335.702 185.471 335.001 186.576 C 334.738 187.003 334.504 187.28 334.504 187.732 L 334.504 189.565 C 334.504 189.891 334.474 190.117 335.117 190.117 L 340.67 190.092 C 341.401 190.092 341.401 190.218 341.401 190.569 C 341.401 190.946 341.343 192.678 341.343 192.854 C 341.343 193.105 341.401 193.356 341.956 193.356 L 344.499 193.356 C 345.113 193.356 345.113 193.055 345.113 192.478 C 345.142 191.975 345.084 190.971 345.084 190.469 C 345.084 190.067 345.171 190.042 345.961 190.042 C 346.574 190.042 346.837 189.992 346.837 189.665 C 346.867 188.987 346.837 188.51 346.837 187.757 C 346.837 187.305 346.37 187.33 345.376 187.33 C 345.054 187.33 345.025 187.254 345.025 186.878 C 344.967 186.099 344.908 184.894 344.908 184.115 Z M 341.284 181.554 C 341.255 181.855 341.226 186.225 341.226 186.853 C 341.196 187.204 341.109 187.305 340.729 187.33 C 339.764 187.355 338.8 187.355 337.835 187.355 C 337.601 187.355 337.514 187.179 337.631 186.978 C 337.748 186.802 340.057 181.981 340.7 180.725 C 340.787 180.65 340.816 180.575 340.904 180.499 C 340.992 180.449 341.109 180.424 341.196 180.399 C 341.226 180.399 341.313 180.525 341.313 180.6 C 341.313 180.926 341.284 181.253 341.284 181.554 Z" fill="#222221" style="stroke-width: 1;"/></g></svg>